<svg width="148" height="35" viewBox="0 0 148 35" fill="none" xmlns="http://www.w3.org/2000/svg">
<path d="M49.8043 26.7593V9.35487H53.7582V26.7593H49.8043ZM43.9292 9.91181V6.43093H59.6333V9.91181H43.9292Z" fill="black"/>
<path d="M62.3098 26.7593V11.6383H66.1801V26.7593H62.3098ZM60.1936 14.5344V11.6383H66.1801V14.5344H60.1936ZM63.7299 9.82827C62.9688 9.82827 62.4026 9.63334 62.0314 9.24349C61.6787 8.83506 61.5023 8.33381 61.5023 7.73974C61.5023 7.10854 61.6787 6.59802 62.0314 6.20816C62.4026 5.8183 62.9688 5.62337 63.7299 5.62337C64.4909 5.62337 65.0478 5.8183 65.4005 6.20816C65.7532 6.59802 65.9295 7.10854 65.9295 7.73974C65.9295 8.33381 65.7532 8.83506 65.4005 9.24349C65.0478 9.63334 64.4909 9.82827 63.7299 9.82827Z" fill="black"/>
<path d="M70.1951 32.7186V29.4048H73.0352C73.5735 29.4048 74.0191 29.3305 74.3717 29.182C74.743 29.052 75.0493 28.8292 75.2906 28.5136C75.5319 28.2166 75.7175 27.7989 75.8475 27.2605L79.9127 11.6383H83.616L79.1331 28.0959C78.8361 29.2284 78.4184 30.1288 77.8801 30.7971C77.3418 31.484 76.6457 31.976 75.7918 32.273C74.9565 32.57 73.917 32.7186 72.6733 32.7186H70.1951ZM74.9008 26.4251V23.3619H78.1307V26.4251H74.9008ZM73.5921 26.4251L68.6915 11.6383H72.5897L77.2397 26.4251H73.5921Z" fill="black"/>
<path d="M95.2461 26.7593V22.2759H94.6057V17.2913C94.6057 16.4187 94.3923 15.769 93.9653 15.342C93.5384 14.915 92.8794 14.7015 91.9884 14.7015C91.5243 14.7015 90.9674 14.7108 90.3177 14.7294C89.668 14.7479 89.0091 14.7758 88.3408 14.8129C87.6911 14.8315 87.1064 14.8593 86.5866 14.8964V11.6105C87.0136 11.5734 87.4962 11.5362 88.0345 11.4991C88.5728 11.462 89.1204 11.4434 89.6773 11.4434C90.2528 11.4248 90.7911 11.4156 91.2923 11.4156C92.8515 11.4156 94.1417 11.6198 95.1626 12.0282C96.2021 12.4366 96.9818 13.0771 97.5015 13.9496C98.0398 14.8222 98.309 15.9639 98.309 17.3748V26.7593H95.2461ZM90.3734 27.1491C89.2782 27.1491 88.313 26.9542 87.4776 26.5644C86.6609 26.1745 86.0205 25.6176 85.5564 24.8935C85.1109 24.1695 84.8881 23.297 84.8881 22.2759C84.8881 21.162 85.1573 20.2524 85.6956 19.5469C86.2525 18.8414 87.0228 18.3123 88.0067 17.9596C89.0091 17.6069 90.1785 17.4305 91.515 17.4305H95.0234V19.7418H91.4593C90.5683 19.7418 89.8815 19.9646 89.3989 20.4102C88.9348 20.8371 88.7028 21.3941 88.7028 22.081C88.7028 22.7679 88.9348 23.3248 89.3989 23.7518C89.8815 24.1788 90.5683 24.3923 91.4593 24.3923C91.9977 24.3923 92.4896 24.2995 92.9351 24.1138C93.3991 23.9096 93.7797 23.5754 94.0767 23.1113C94.3923 22.6286 94.5686 21.9789 94.6057 21.162L95.5524 22.2481C95.4596 23.3062 95.1997 24.1974 94.7728 24.9214C94.3644 25.6454 93.789 26.2023 93.0465 26.5922C92.3225 26.9635 91.4315 27.1491 90.3734 27.1491Z" fill="black"/>
<path d="M107.94 27.2327C105.861 27.2327 104.227 26.7964 103.039 25.9239C101.87 25.0328 101.257 23.8075 101.202 22.2481H104.682C104.738 22.7679 105.026 23.2413 105.545 23.6683C106.065 24.0952 106.882 24.3087 107.996 24.3087C108.924 24.3087 109.657 24.1417 110.195 23.8075C110.752 23.4733 111.031 23.0185 111.031 22.443C111.031 21.9417 110.817 21.5426 110.39 21.2456C109.982 20.9485 109.277 20.7536 108.274 20.6608L106.938 20.5215C105.248 20.3359 103.949 19.8532 103.039 19.0735C102.13 18.2938 101.675 17.2542 101.675 15.9546C101.675 14.915 101.935 14.0425 102.455 13.337C102.974 12.6315 103.689 12.1024 104.599 11.7497C105.527 11.3784 106.585 11.1928 107.773 11.1928C109.629 11.1928 111.133 11.6012 112.284 12.418C113.435 13.2349 114.038 14.4323 114.094 16.0103H110.613C110.576 15.4905 110.316 15.045 109.833 14.6737C109.351 14.3024 108.655 14.1167 107.745 14.1167C106.928 14.1167 106.297 14.2745 105.852 14.5901C105.406 14.9057 105.183 15.3141 105.183 15.8154C105.183 16.2981 105.36 16.6694 105.712 16.9293C106.084 17.1892 106.678 17.3655 107.495 17.4584L108.831 17.5976C110.613 17.7832 112.005 18.2752 113.008 19.0735C114.029 19.8718 114.539 20.9485 114.539 22.3038C114.539 23.3062 114.261 24.1788 113.704 24.9214C113.165 25.6454 112.404 26.2116 111.421 26.62C110.437 27.0285 109.277 27.2327 107.94 27.2327Z" fill="black"/>
<path d="M126.897 26.7593V22.2759H126.257V17.2913C126.257 16.4187 126.043 15.769 125.616 15.342C125.189 14.915 124.53 14.7015 123.639 14.7015C123.175 14.7015 122.618 14.7108 121.969 14.7294C121.319 14.7479 120.66 14.7758 119.992 14.8129C119.342 14.8315 118.757 14.8593 118.238 14.8964V11.6105C118.664 11.5734 119.147 11.5362 119.685 11.4991C120.224 11.462 120.771 11.4434 121.328 11.4434C121.904 11.4248 122.442 11.4156 122.943 11.4156C124.502 11.4156 125.793 11.6198 126.814 12.0282C127.853 12.4366 128.633 13.0771 129.152 13.9496C129.691 14.8222 129.96 15.9639 129.96 17.3748V26.7593H126.897ZM122.024 27.1491C120.929 27.1491 119.964 26.9542 119.129 26.5644C118.312 26.1745 117.671 25.6176 117.207 24.8935C116.762 24.1695 116.539 23.297 116.539 22.2759C116.539 21.162 116.808 20.2524 117.347 19.5469C117.903 18.8414 118.674 18.3123 119.658 17.9596C120.66 17.6069 121.829 17.4305 123.166 17.4305H126.674V19.7418H123.11C122.219 19.7418 121.532 19.9646 121.05 20.4102C120.586 20.8371 120.354 21.3941 120.354 22.081C120.354 22.7679 120.586 23.3248 121.05 23.7518C121.532 24.1788 122.219 24.3923 123.11 24.3923C123.649 24.3923 124.141 24.2995 124.586 24.1138C125.05 23.9096 125.431 23.5754 125.728 23.1113C126.043 22.6286 126.22 21.9789 126.257 21.162L127.203 22.2481C127.111 23.3062 126.851 24.1974 126.424 24.9214C126.015 25.6454 125.44 26.2023 124.697 26.5922C123.973 26.9635 123.082 27.1491 122.024 27.1491Z" fill="black"/>
<path d="M134.106 26.7593V11.6383H137.169V18.1267H136.89C136.89 16.5858 137.094 15.3049 137.503 14.2838C137.911 13.2442 138.514 12.4645 139.313 11.9447C140.129 11.4248 141.141 11.1649 142.348 11.1649H142.515C144.315 11.1649 145.68 11.7497 146.608 12.9193C147.536 14.0703 148 15.7968 148 18.0988V26.7593H144.13V17.7647C144.13 16.8364 143.86 16.0846 143.322 15.5091C142.802 14.9336 142.078 14.6458 141.15 14.6458C140.204 14.6458 139.433 14.9428 138.839 15.5369C138.264 16.1124 137.976 16.8921 137.976 17.8761V26.7593H134.106Z" fill="black"/>
<path d="M30.3779 5.23242L26.3496 12.209H34.5869V22.3828H26.1914L30.3779 29.6338L21.3154 34.8662L17.293 27.8984L13.2734 34.8623L4.21094 29.6299L8.39453 22.3828H0V12.209H8.23535L4.21094 5.2373L13.2734 0.00390625L17.293 6.96777L21.3164 0L30.3779 5.23242ZM17.2939 26.4521L25.2227 12.7178H9.36426L17.2939 26.4521Z" fill="#FE4411"/>
</svg>
